<?xml version="1.0" encoding="UTF-8" standalone="no"?>
<!DOCTYPE svg PUBLIC "-//W3C//DTD SVG 1.1//EN" "http://www.w3.org/Graphics/SVG/1.1/DTD/svg11.dtd">
<!-- Gegenereerd door Microsoft Visio, SVG Export structure 3.svg Pagina-1 -->
<svg xmlns="http://www.w3.org/2000/svg" xmlns:xlink="http://www.w3.org/1999/xlink" xmlns:ev="http://www.w3.org/2001/xml-events"
		xmlns:v="http://schemas.microsoft.com/visio/2003/SVGExtensions/" width="2.43168in" height="1.25057in"
		viewBox="0 0 175.081 90.0413" xml:space="preserve" color-interpolation-filters="sRGB" class="st3">
	<v:documentProperties v:langID="1043" v:metric="true" v:viewMarkup="false"/>

	<style type="text/css">
	<![CDATA[
		.st1 {stroke:#000000;stroke-linecap:round;stroke-linejoin:round;stroke-width:1}
		.st2 {fill:#ffffff;stroke:#000000;stroke-linecap:round;stroke-linejoin:round;stroke-width:0.75}
		.st3 {fill:none;fill-rule:evenodd;font-size:12px;overflow:visible;stroke-linecap:square;stroke-miterlimit:3}
	]]>
	</style>

	<g v:mID="0" v:index="1" v:groupContext="foregroundPage">
		<title>Pagina-1</title>
		<v:pageProperties v:drawingScale="0.0393701" v:pageScale="0.0393701" v:drawingUnits="24" v:shadowOffsetX="8.50394"
				v:shadowOffsetY="-8.50394"/>
		<g id="shape1318-1" v:mID="1318" v:groupContext="shape" transform="translate(37.5944,12.6214) rotate(-33.69)">
			<title>Vakwerk, 1 pt.1318</title>
			<path d="M0 90.04 L51.1 90.04" class="st1"/>
		</g>
		<g id="shape1323-4" v:mID="1323" v:groupContext="shape" transform="translate(130.06,-30.8474)">
			<title>Vakwerk, 1 pt.1323</title>
			<path d="M0 90.04 L42.52 90.04" class="st1"/>
		</g>
		<g id="shape1324-7" v:mID="1324" v:groupContext="shape" transform="translate(2.50098,-30.8474)">
			<title>Vakwerk, 1 pt.1324</title>
			<path d="M0 90.04 L42.52 90.04" class="st1"/>
		</g>
		<g id="shape1325-10" v:mID="1325" v:groupContext="shape" transform="translate(94.9666,-15.725) rotate(33.69)">
			<title>Vakwerk, 1 pt.1325</title>
			<path d="M0 90.04 L51.1 90.04" class="st1"/>
		</g>
		<g id="shape1334-13" v:mID="1334" v:groupContext="shape" transform="translate(-47.445,-15.7249) rotate(-33.6901)">
			<title>Vakwerk, 1 pt.1334</title>
			<path d="M0 90.04 L51.1 90.04" class="st1"/>
		</g>
		<g id="shape1335-16" v:mID="1335" v:groupContext="shape" transform="translate(-4.92527,-44.0715) rotate(-33.6901)">
			<title>Vakwerk, 1 pt.1335</title>
			<path d="M0 90.04 L51.1 90.04" class="st1"/>
		</g>
		<g id="shape1336-19" v:mID="1336" v:groupContext="shape" transform="translate(45.0207,-59.1939)">
			<title>Vakwerk, 1 pt.1336</title>
			<path d="M0 90.04 L42.52 90.04" class="st1"/>
		</g>
		<g id="shape1337-22" v:mID="1337" v:groupContext="shape" transform="translate(-4.92532,-15.725) rotate(-33.6901)">
			<title>Vakwerk, 1 pt.1337</title>
			<path d="M0 90.04 L51.1 90.04" class="st1"/>
		</g>
		<g id="shape1338-25" v:mID="1338" v:groupContext="shape" transform="translate(-2.50098,30.8474) rotate(-90)">
			<title>Vakwerk, 1 pt.1338</title>
			<path d="M0 90.04 L28.35 90.04" class="st1"/>
		</g>
		<g id="shape1339-28" v:mID="1339" v:groupContext="shape" transform="translate(-45.0207,59.1939) rotate(-90)">
			<title>Vakwerk, 1 pt.1339</title>
			<path d="M0 90.04 L28.35 90.04" class="st1"/>
		</g>
		<g id="shape1340-31" v:mID="1340" v:groupContext="shape" transform="translate(130.06,120.889) rotate(180)">
			<title>Vakwerk, 1 pt.1340</title>
			<path d="M0 90.04 L42.52 90.04" class="st1"/>
		</g>
		<g id="shape1341-34" v:mID="1341" v:groupContext="shape" transform="translate(80.1141,105.766) rotate(-146.31)">
			<title>Vakwerk, 1 pt.1341</title>
			<path d="M0 90.04 L51.1 90.04" class="st1"/>
		</g>
		<g id="shape1342-37" v:mID="1342" v:groupContext="shape" transform="translate(122.634,134.113) rotate(-146.31)">
			<title>Vakwerk, 1 pt.1342</title>
			<path d="M0 90.04 L51.1 90.04" class="st1"/>
		</g>
		<g id="shape1343-40" v:mID="1343" v:groupContext="shape" transform="translate(80.1141,134.113) rotate(-146.31)">
			<title>Vakwerk, 1 pt.1343</title>
			<path d="M0 90.04 L51.1 90.04" class="st1"/>
		</g>
		<g id="shape1344-43" v:mID="1344" v:groupContext="shape" transform="translate(40.0187,59.1939) rotate(-90)">
			<title>Vakwerk, 1 pt.1344</title>
			<path d="M0 90.04 L28.35 90.04" class="st1"/>
		</g>
		<g id="shape1329-46" v:mID="1329" v:groupContext="shape" transform="translate(85.4144,-85.4144)">
			<title>Scharnier.1329</title>
			<ellipse cx="2.12598" cy="87.9154" rx="2.12598" ry="2.12598" class="st2"/>
		</g>
		<g id="shape1330-48" v:mID="1330" v:groupContext="shape" transform="translate(85.4144,-57.0679)">
			<title>Scharnier.1330</title>
			<ellipse cx="2.12598" cy="87.9154" rx="2.12598" ry="2.12598" class="st2"/>
		</g>
		<g id="shape1326-50" v:mID="1326" v:groupContext="shape" transform="translate(42.8947,-57.0679)">
			<title>Scharnier.1326</title>
			<ellipse cx="2.12598" cy="87.9154" rx="2.12598" ry="2.12598" class="st2"/>
		</g>
		<g id="shape1328-52" v:mID="1328" v:groupContext="shape" transform="translate(42.8947,-28.7215)">
			<title>Scharnier.1328</title>
			<ellipse cx="2.12598" cy="87.9154" rx="2.12598" ry="2.12598" class="st2"/>
		</g>
		<g id="shape1331-54" v:mID="1331" v:groupContext="shape" transform="translate(127.934,-57.0679)">
			<title>Scharnier.1331</title>
			<ellipse cx="2.12598" cy="87.9154" rx="2.12598" ry="2.12598" class="st2"/>
		</g>
		<g id="shape1332-56" v:mID="1332" v:groupContext="shape" transform="translate(127.934,-28.7215)">
			<title>Scharnier.1332</title>
			<ellipse cx="2.12598" cy="87.9154" rx="2.12598" ry="2.12598" class="st2"/>
		</g>
		<g id="shape1345-58" v:mID="1345" v:groupContext="shape" transform="translate(85.4144,-0.375)">
			<title>Scharnier.1345</title>
			<ellipse cx="2.12598" cy="87.9154" rx="2.12598" ry="2.12598" class="st2"/>
		</g>
		<g id="shape1327-60" v:mID="1327" v:groupContext="shape" transform="translate(0.375,-28.7214)">
			<title>Scharnier.1327</title>
			<ellipse cx="2.12598" cy="87.9154" rx="2.12598" ry="2.12598" class="st2"/>
		</g>
		<g id="shape1333-62" v:mID="1333" v:groupContext="shape" transform="translate(170.454,-28.7214)">
			<title>Scharnier.1333</title>
			<ellipse cx="2.12598" cy="87.9154" rx="2.12598" ry="2.12598" class="st2"/>
		</g>
	</g>
</svg>
